<mxfile host="app.diagrams.net" modified="2024-01-23T17:46:50.981Z" agent="Mozilla/5.0 (Windows NT 10.0; Win64; x64; rv:121.0) Gecko/20100101 Firefox/121.0" etag="WAZ8Sg9B2MI93xUBslE8" version="22.1.21" type="device">
  <diagram name="Page-1" id="YvsTHPCTIXLpTZI9YfE7">
    <mxGraphModel dx="1400" dy="-408" grid="1" gridSize="10" guides="1" tooltips="1" connect="1" arrows="1" fold="1" page="1" pageScale="1" pageWidth="850" pageHeight="1100" math="0" shadow="0">
      <root>
        <mxCell id="0" />
        <mxCell id="1" parent="0" />
        <mxCell id="F0BfJw0g09WCWPjjvVez-20" value="Airline" style="swimlane;fontStyle=0;childLayout=stackLayout;horizontal=1;startSize=26;horizontalStack=0;resizeParent=1;resizeParentMax=0;resizeLast=0;collapsible=1;marginBottom=0;align=center;fontSize=15;" vertex="1" parent="1">
          <mxGeometry x="560" y="1370" width="240" height="202" as="geometry" />
        </mxCell>
        <mxCell id="F0BfJw0g09WCWPjjvVez-31" value="&lt;font style=&quot;font-size: 18px;&quot;&gt;&amp;nbsp;IdentificationNumber&lt;/font&gt;" style="text;strokeColor=none;fillColor=none;spacingLeft=4;spacingRight=4;overflow=hidden;rotatable=0;points=[[0,0.5],[1,0.5]];portConstraint=eastwest;fontSize=12;whiteSpace=wrap;html=1;" vertex="1" parent="F0BfJw0g09WCWPjjvVez-20">
          <mxGeometry y="26" width="240" height="44" as="geometry" />
        </mxCell>
        <mxCell id="F0BfJw0g09WCWPjjvVez-32" value="" style="endArrow=none;html=1;rounded=0;" edge="1" parent="F0BfJw0g09WCWPjjvVez-20">
          <mxGeometry relative="1" as="geometry">
            <mxPoint x="10" y="56" as="sourcePoint" />
            <mxPoint x="170" y="56" as="targetPoint" />
          </mxGeometry>
        </mxCell>
        <mxCell id="F0BfJw0g09WCWPjjvVez-21" value="&lt;font style=&quot;font-size: 18px;&quot;&gt;&amp;nbsp;Name&lt;/font&gt;" style="text;strokeColor=none;fillColor=none;spacingLeft=4;spacingRight=4;overflow=hidden;rotatable=0;points=[[0,0.5],[1,0.5]];portConstraint=eastwest;fontSize=12;whiteSpace=wrap;html=1;" vertex="1" parent="F0BfJw0g09WCWPjjvVez-20">
          <mxGeometry y="70" width="240" height="44" as="geometry" />
        </mxCell>
        <mxCell id="F0BfJw0g09WCWPjjvVez-22" value="&lt;font style=&quot;font-size: 18px;&quot;&gt;&amp;nbsp;Address&lt;/font&gt;" style="text;strokeColor=none;fillColor=none;spacingLeft=4;spacingRight=4;overflow=hidden;rotatable=0;points=[[0,0.5],[1,0.5]];portConstraint=eastwest;fontSize=12;whiteSpace=wrap;html=1;" vertex="1" parent="F0BfJw0g09WCWPjjvVez-20">
          <mxGeometry y="114" width="240" height="44" as="geometry" />
        </mxCell>
        <mxCell id="F0BfJw0g09WCWPjjvVez-23" value="&lt;div&gt;&lt;font style=&quot;font-size: 18px;&quot;&gt;&amp;nbsp;ContactPersonName&lt;/font&gt;&lt;/div&gt;&lt;div&gt;&lt;font style=&quot;font-size: 18px;&quot;&gt;&lt;br&gt;&lt;/font&gt;&lt;/div&gt;&lt;div&gt;&lt;font style=&quot;font-size: 18px;&quot;&gt;&lt;br&gt;&lt;/font&gt;&lt;/div&gt;&lt;div&gt;&lt;font style=&quot;font-size: 18px;&quot;&gt;&lt;br&gt;&lt;/font&gt;&lt;/div&gt;" style="text;strokeColor=none;fillColor=none;spacingLeft=4;spacingRight=4;overflow=hidden;rotatable=0;points=[[0,0.5],[1,0.5]];portConstraint=eastwest;fontSize=12;whiteSpace=wrap;html=1;" vertex="1" parent="F0BfJw0g09WCWPjjvVez-20">
          <mxGeometry y="158" width="240" height="44" as="geometry" />
        </mxCell>
        <mxCell id="F0BfJw0g09WCWPjjvVez-39" value="Airline_Phone" style="swimlane;fontStyle=0;childLayout=stackLayout;horizontal=1;startSize=26;horizontalStack=0;resizeParent=1;resizeParentMax=0;resizeLast=0;collapsible=1;marginBottom=0;align=center;fontSize=15;" vertex="1" parent="1">
          <mxGeometry x="550" y="1120" width="250" height="114" as="geometry" />
        </mxCell>
        <mxCell id="F0BfJw0g09WCWPjjvVez-40" value="&lt;font style=&quot;font-size: 18px;&quot;&gt;&amp;nbsp;Airline_id&lt;/font&gt;" style="text;strokeColor=none;fillColor=none;spacingLeft=4;spacingRight=4;overflow=hidden;rotatable=0;points=[[0,0.5],[1,0.5]];portConstraint=eastwest;fontSize=12;whiteSpace=wrap;html=1;" vertex="1" parent="F0BfJw0g09WCWPjjvVez-39">
          <mxGeometry y="26" width="250" height="44" as="geometry" />
        </mxCell>
        <mxCell id="F0BfJw0g09WCWPjjvVez-48" value="" style="endArrow=none;html=1;rounded=0;" edge="1" parent="F0BfJw0g09WCWPjjvVez-39">
          <mxGeometry relative="1" as="geometry">
            <mxPoint x="10" y="59.47000000000003" as="sourcePoint" />
            <mxPoint x="80" y="59" as="targetPoint" />
          </mxGeometry>
        </mxCell>
        <mxCell id="F0BfJw0g09WCWPjjvVez-41" value="&lt;font style=&quot;font-size: 18px;&quot;&gt;&amp;nbsp;Phone_number&lt;/font&gt;" style="text;strokeColor=none;fillColor=none;spacingLeft=4;spacingRight=4;overflow=hidden;rotatable=0;points=[[0,0.5],[1,0.5]];portConstraint=eastwest;fontSize=12;whiteSpace=wrap;html=1;" vertex="1" parent="F0BfJw0g09WCWPjjvVez-39">
          <mxGeometry y="70" width="250" height="44" as="geometry" />
        </mxCell>
        <mxCell id="F0BfJw0g09WCWPjjvVez-49" value="" style="endArrow=none;html=1;rounded=0;" edge="1" parent="F0BfJw0g09WCWPjjvVez-39">
          <mxGeometry relative="1" as="geometry">
            <mxPoint x="10" y="100" as="sourcePoint" />
            <mxPoint x="130" y="100" as="targetPoint" />
          </mxGeometry>
        </mxCell>
        <mxCell id="F0BfJw0g09WCWPjjvVez-51" value="Employee" style="swimlane;fontStyle=0;childLayout=stackLayout;horizontal=1;startSize=26;horizontalStack=0;resizeParent=1;resizeParentMax=0;resizeLast=0;collapsible=1;marginBottom=0;align=center;fontSize=14;" vertex="1" parent="1">
          <mxGeometry x="1270" y="1360" width="250" height="422" as="geometry" />
        </mxCell>
        <mxCell id="F0BfJw0g09WCWPjjvVez-52" value="&lt;font style=&quot;font-size: 18px;&quot;&gt;&amp;nbsp;Id_number&lt;/font&gt;" style="text;strokeColor=none;fillColor=none;spacingLeft=4;spacingRight=4;overflow=hidden;rotatable=0;points=[[0,0.5],[1,0.5]];portConstraint=eastwest;fontSize=12;whiteSpace=wrap;html=1;" vertex="1" parent="F0BfJw0g09WCWPjjvVez-51">
          <mxGeometry y="26" width="250" height="44" as="geometry" />
        </mxCell>
        <mxCell id="F0BfJw0g09WCWPjjvVez-53" value="" style="endArrow=none;html=1;rounded=0;entryX=0.4;entryY=0.75;entryDx=0;entryDy=0;entryPerimeter=0;" edge="1" parent="F0BfJw0g09WCWPjjvVez-51" target="F0BfJw0g09WCWPjjvVez-52">
          <mxGeometry relative="1" as="geometry">
            <mxPoint x="10" y="59.47000000000003" as="sourcePoint" />
            <mxPoint x="80" y="59" as="targetPoint" />
          </mxGeometry>
        </mxCell>
        <mxCell id="F0BfJw0g09WCWPjjvVez-54" value="&lt;font style=&quot;font-size: 18px;&quot;&gt;Name&lt;/font&gt;" style="text;strokeColor=none;fillColor=none;spacingLeft=4;spacingRight=4;overflow=hidden;rotatable=0;points=[[0,0.5],[1,0.5]];portConstraint=eastwest;fontSize=12;whiteSpace=wrap;html=1;" vertex="1" parent="F0BfJw0g09WCWPjjvVez-51">
          <mxGeometry y="70" width="250" height="44" as="geometry" />
        </mxCell>
        <mxCell id="F0BfJw0g09WCWPjjvVez-56" value="&lt;font style=&quot;font-size: 18px;&quot;&gt;Address&lt;/font&gt;" style="text;strokeColor=none;fillColor=none;spacingLeft=4;spacingRight=4;overflow=hidden;rotatable=0;points=[[0,0.5],[1,0.5]];portConstraint=eastwest;fontSize=12;whiteSpace=wrap;html=1;" vertex="1" parent="F0BfJw0g09WCWPjjvVez-51">
          <mxGeometry y="114" width="250" height="44" as="geometry" />
        </mxCell>
        <mxCell id="F0BfJw0g09WCWPjjvVez-57" value="&lt;font style=&quot;font-size: 18px;&quot;&gt;Gender&lt;/font&gt;" style="text;strokeColor=none;fillColor=none;spacingLeft=4;spacingRight=4;overflow=hidden;rotatable=0;points=[[0,0.5],[1,0.5]];portConstraint=eastwest;fontSize=12;whiteSpace=wrap;html=1;" vertex="1" parent="F0BfJw0g09WCWPjjvVez-51">
          <mxGeometry y="158" width="250" height="44" as="geometry" />
        </mxCell>
        <mxCell id="F0BfJw0g09WCWPjjvVez-58" value="&lt;font style=&quot;font-size: 18px;&quot;&gt;Position&lt;/font&gt;" style="text;strokeColor=none;fillColor=none;spacingLeft=4;spacingRight=4;overflow=hidden;rotatable=0;points=[[0,0.5],[1,0.5]];portConstraint=eastwest;fontSize=12;whiteSpace=wrap;html=1;" vertex="1" parent="F0BfJw0g09WCWPjjvVez-51">
          <mxGeometry y="202" width="250" height="44" as="geometry" />
        </mxCell>
        <mxCell id="F0BfJw0g09WCWPjjvVez-59" value="&lt;font style=&quot;font-size: 18px;&quot;&gt;day&lt;/font&gt;" style="text;strokeColor=none;fillColor=none;spacingLeft=4;spacingRight=4;overflow=hidden;rotatable=0;points=[[0,0.5],[1,0.5]];portConstraint=eastwest;fontSize=12;whiteSpace=wrap;html=1;" vertex="1" parent="F0BfJw0g09WCWPjjvVez-51">
          <mxGeometry y="246" width="250" height="44" as="geometry" />
        </mxCell>
        <mxCell id="F0BfJw0g09WCWPjjvVez-60" value="&lt;font style=&quot;font-size: 18px;&quot;&gt;mounth&lt;/font&gt;" style="text;strokeColor=none;fillColor=none;spacingLeft=4;spacingRight=4;overflow=hidden;rotatable=0;points=[[0,0.5],[1,0.5]];portConstraint=eastwest;fontSize=12;whiteSpace=wrap;html=1;" vertex="1" parent="F0BfJw0g09WCWPjjvVez-51">
          <mxGeometry y="290" width="250" height="44" as="geometry" />
        </mxCell>
        <mxCell id="F0BfJw0g09WCWPjjvVez-61" value="&lt;font style=&quot;font-size: 18px;&quot;&gt;year&lt;/font&gt;" style="text;strokeColor=none;fillColor=none;spacingLeft=4;spacingRight=4;overflow=hidden;rotatable=0;points=[[0,0.5],[1,0.5]];portConstraint=eastwest;fontSize=12;whiteSpace=wrap;html=1;" vertex="1" parent="F0BfJw0g09WCWPjjvVez-51">
          <mxGeometry y="334" width="250" height="44" as="geometry" />
        </mxCell>
        <mxCell id="F0BfJw0g09WCWPjjvVez-113" value="&lt;font style=&quot;font-size: 18px;&quot;&gt;Airline_id&lt;br&gt;&lt;/font&gt;" style="text;strokeColor=none;fillColor=none;spacingLeft=4;spacingRight=4;overflow=hidden;rotatable=0;points=[[0,0.5],[1,0.5]];portConstraint=eastwest;fontSize=12;whiteSpace=wrap;html=1;" vertex="1" parent="F0BfJw0g09WCWPjjvVez-51">
          <mxGeometry y="378" width="250" height="44" as="geometry" />
        </mxCell>
        <mxCell id="F0BfJw0g09WCWPjjvVez-63" value="Emp_qualifications" style="swimlane;fontStyle=0;childLayout=stackLayout;horizontal=1;startSize=26;horizontalStack=0;resizeParent=1;resizeParentMax=0;resizeLast=0;collapsible=1;marginBottom=0;align=center;fontSize=14;" vertex="1" parent="1">
          <mxGeometry x="1270" y="1120" width="250" height="114" as="geometry" />
        </mxCell>
        <mxCell id="F0BfJw0g09WCWPjjvVez-64" value="&lt;font style=&quot;font-size: 18px;&quot;&gt;&amp;nbsp;Emp_id&lt;/font&gt;" style="text;strokeColor=none;fillColor=none;spacingLeft=4;spacingRight=4;overflow=hidden;rotatable=0;points=[[0,0.5],[1,0.5]];portConstraint=eastwest;fontSize=12;whiteSpace=wrap;html=1;" vertex="1" parent="F0BfJw0g09WCWPjjvVez-63">
          <mxGeometry y="26" width="250" height="44" as="geometry" />
        </mxCell>
        <mxCell id="F0BfJw0g09WCWPjjvVez-65" value="" style="endArrow=none;html=1;rounded=0;" edge="1" parent="F0BfJw0g09WCWPjjvVez-63">
          <mxGeometry relative="1" as="geometry">
            <mxPoint x="10" y="59.47000000000003" as="sourcePoint" />
            <mxPoint x="80" y="59" as="targetPoint" />
          </mxGeometry>
        </mxCell>
        <mxCell id="F0BfJw0g09WCWPjjvVez-66" value="&lt;font style=&quot;font-size: 18px;&quot;&gt;&amp;nbsp;Qualifications&lt;/font&gt;" style="text;strokeColor=none;fillColor=none;spacingLeft=4;spacingRight=4;overflow=hidden;rotatable=0;points=[[0,0.5],[1,0.5]];portConstraint=eastwest;fontSize=12;whiteSpace=wrap;html=1;" vertex="1" parent="F0BfJw0g09WCWPjjvVez-63">
          <mxGeometry y="70" width="250" height="44" as="geometry" />
        </mxCell>
        <mxCell id="F0BfJw0g09WCWPjjvVez-67" value="" style="endArrow=none;html=1;rounded=0;" edge="1" parent="F0BfJw0g09WCWPjjvVez-63">
          <mxGeometry relative="1" as="geometry">
            <mxPoint x="10" y="100" as="sourcePoint" />
            <mxPoint x="120" y="100" as="targetPoint" />
          </mxGeometry>
        </mxCell>
        <mxCell id="F0BfJw0g09WCWPjjvVez-68" value="Aircraft" style="swimlane;fontStyle=0;childLayout=stackLayout;horizontal=1;startSize=26;horizontalStack=0;resizeParent=1;resizeParentMax=0;resizeLast=0;collapsible=1;marginBottom=0;align=center;fontSize=14;" vertex="1" parent="1">
          <mxGeometry x="147.5" y="1160" width="250" height="378" as="geometry" />
        </mxCell>
        <mxCell id="F0BfJw0g09WCWPjjvVez-69" value="&lt;font style=&quot;font-size: 18px;&quot;&gt;&amp;nbsp;Id_number&lt;/font&gt;" style="text;strokeColor=none;fillColor=none;spacingLeft=4;spacingRight=4;overflow=hidden;rotatable=0;points=[[0,0.5],[1,0.5]];portConstraint=eastwest;fontSize=12;whiteSpace=wrap;html=1;" vertex="1" parent="F0BfJw0g09WCWPjjvVez-68">
          <mxGeometry y="26" width="250" height="44" as="geometry" />
        </mxCell>
        <mxCell id="F0BfJw0g09WCWPjjvVez-70" value="" style="endArrow=none;html=1;rounded=0;entryX=0.4;entryY=0.75;entryDx=0;entryDy=0;entryPerimeter=0;" edge="1" parent="F0BfJw0g09WCWPjjvVez-68" target="F0BfJw0g09WCWPjjvVez-69">
          <mxGeometry relative="1" as="geometry">
            <mxPoint x="10" y="59.47000000000003" as="sourcePoint" />
            <mxPoint x="80" y="59" as="targetPoint" />
          </mxGeometry>
        </mxCell>
        <mxCell id="F0BfJw0g09WCWPjjvVez-71" value="&lt;font style=&quot;font-size: 18px;&quot;&gt;Capacity&lt;/font&gt;" style="text;strokeColor=none;fillColor=none;spacingLeft=4;spacingRight=4;overflow=hidden;rotatable=0;points=[[0,0.5],[1,0.5]];portConstraint=eastwest;fontSize=12;whiteSpace=wrap;html=1;" vertex="1" parent="F0BfJw0g09WCWPjjvVez-68">
          <mxGeometry y="70" width="250" height="44" as="geometry" />
        </mxCell>
        <mxCell id="F0BfJw0g09WCWPjjvVez-72" value="&lt;font style=&quot;font-size: 18px;&quot;&gt;Model&lt;/font&gt;" style="text;strokeColor=none;fillColor=none;spacingLeft=4;spacingRight=4;overflow=hidden;rotatable=0;points=[[0,0.5],[1,0.5]];portConstraint=eastwest;fontSize=12;whiteSpace=wrap;html=1;" vertex="1" parent="F0BfJw0g09WCWPjjvVez-68">
          <mxGeometry y="114" width="250" height="44" as="geometry" />
        </mxCell>
        <mxCell id="F0BfJw0g09WCWPjjvVez-73" value="&lt;font style=&quot;font-size: 18px;&quot;&gt;MajorPilot&lt;/font&gt;" style="text;strokeColor=none;fillColor=none;spacingLeft=4;spacingRight=4;overflow=hidden;rotatable=0;points=[[0,0.5],[1,0.5]];portConstraint=eastwest;fontSize=12;whiteSpace=wrap;html=1;" vertex="1" parent="F0BfJw0g09WCWPjjvVez-68">
          <mxGeometry y="158" width="250" height="44" as="geometry" />
        </mxCell>
        <mxCell id="F0BfJw0g09WCWPjjvVez-74" value="&lt;font style=&quot;font-size: 18px;&quot;&gt;AssistantPilot&lt;/font&gt;" style="text;strokeColor=none;fillColor=none;spacingLeft=4;spacingRight=4;overflow=hidden;rotatable=0;points=[[0,0.5],[1,0.5]];portConstraint=eastwest;fontSize=12;whiteSpace=wrap;html=1;" vertex="1" parent="F0BfJw0g09WCWPjjvVez-68">
          <mxGeometry y="202" width="250" height="44" as="geometry" />
        </mxCell>
        <mxCell id="F0BfJw0g09WCWPjjvVez-75" value="&lt;font style=&quot;font-size: 18px;&quot;&gt;Hostess1&lt;/font&gt;" style="text;strokeColor=none;fillColor=none;spacingLeft=4;spacingRight=4;overflow=hidden;rotatable=0;points=[[0,0.5],[1,0.5]];portConstraint=eastwest;fontSize=12;whiteSpace=wrap;html=1;" vertex="1" parent="F0BfJw0g09WCWPjjvVez-68">
          <mxGeometry y="246" width="250" height="44" as="geometry" />
        </mxCell>
        <mxCell id="F0BfJw0g09WCWPjjvVez-76" value="&lt;font style=&quot;font-size: 18px;&quot;&gt;Hostess2&lt;/font&gt;" style="text;strokeColor=none;fillColor=none;spacingLeft=4;spacingRight=4;overflow=hidden;rotatable=0;points=[[0,0.5],[1,0.5]];portConstraint=eastwest;fontSize=12;whiteSpace=wrap;html=1;" vertex="1" parent="F0BfJw0g09WCWPjjvVez-68">
          <mxGeometry y="290" width="250" height="44" as="geometry" />
        </mxCell>
        <mxCell id="F0BfJw0g09WCWPjjvVez-78" value="&lt;font style=&quot;font-size: 18px;&quot;&gt;Airline_id&lt;br&gt;&lt;/font&gt;" style="text;strokeColor=none;fillColor=none;spacingLeft=4;spacingRight=4;overflow=hidden;rotatable=0;points=[[0,0.5],[1,0.5]];portConstraint=eastwest;fontSize=12;whiteSpace=wrap;html=1;" vertex="1" parent="F0BfJw0g09WCWPjjvVez-68">
          <mxGeometry y="334" width="250" height="44" as="geometry" />
        </mxCell>
        <mxCell id="F0BfJw0g09WCWPjjvVez-80" value="Route" style="swimlane;fontStyle=0;childLayout=stackLayout;horizontal=1;startSize=26;horizontalStack=0;resizeParent=1;resizeParentMax=0;resizeLast=0;collapsible=1;marginBottom=0;align=center;fontSize=14;" vertex="1" parent="1">
          <mxGeometry x="577.5" y="1724" width="250" height="246" as="geometry" />
        </mxCell>
        <mxCell id="F0BfJw0g09WCWPjjvVez-81" value="&lt;font style=&quot;font-size: 18px;&quot;&gt;&amp;nbsp;Id_number&lt;/font&gt;" style="text;strokeColor=none;fillColor=none;spacingLeft=4;spacingRight=4;overflow=hidden;rotatable=0;points=[[0,0.5],[1,0.5]];portConstraint=eastwest;fontSize=12;whiteSpace=wrap;html=1;" vertex="1" parent="F0BfJw0g09WCWPjjvVez-80">
          <mxGeometry y="26" width="250" height="44" as="geometry" />
        </mxCell>
        <mxCell id="F0BfJw0g09WCWPjjvVez-82" value="" style="endArrow=none;html=1;rounded=0;entryX=0.4;entryY=0.75;entryDx=0;entryDy=0;entryPerimeter=0;" edge="1" parent="F0BfJw0g09WCWPjjvVez-80" target="F0BfJw0g09WCWPjjvVez-81">
          <mxGeometry relative="1" as="geometry">
            <mxPoint x="10" y="59.47000000000003" as="sourcePoint" />
            <mxPoint x="80" y="59" as="targetPoint" />
          </mxGeometry>
        </mxCell>
        <mxCell id="F0BfJw0g09WCWPjjvVez-83" value="&lt;font style=&quot;font-size: 18px;&quot;&gt;Origim&lt;/font&gt;" style="text;strokeColor=none;fillColor=none;spacingLeft=4;spacingRight=4;overflow=hidden;rotatable=0;points=[[0,0.5],[1,0.5]];portConstraint=eastwest;fontSize=12;whiteSpace=wrap;html=1;" vertex="1" parent="F0BfJw0g09WCWPjjvVez-80">
          <mxGeometry y="70" width="250" height="44" as="geometry" />
        </mxCell>
        <mxCell id="F0BfJw0g09WCWPjjvVez-84" value="&lt;font style=&quot;font-size: 18px;&quot;&gt;Distination&lt;/font&gt;" style="text;strokeColor=none;fillColor=none;spacingLeft=4;spacingRight=4;overflow=hidden;rotatable=0;points=[[0,0.5],[1,0.5]];portConstraint=eastwest;fontSize=12;whiteSpace=wrap;html=1;" vertex="1" parent="F0BfJw0g09WCWPjjvVez-80">
          <mxGeometry y="114" width="250" height="44" as="geometry" />
        </mxCell>
        <mxCell id="F0BfJw0g09WCWPjjvVez-85" value="&lt;font style=&quot;font-size: 18px;&quot;&gt;Distance&lt;/font&gt;" style="text;strokeColor=none;fillColor=none;spacingLeft=4;spacingRight=4;overflow=hidden;rotatable=0;points=[[0,0.5],[1,0.5]];portConstraint=eastwest;fontSize=12;whiteSpace=wrap;html=1;" vertex="1" parent="F0BfJw0g09WCWPjjvVez-80">
          <mxGeometry y="158" width="250" height="44" as="geometry" />
        </mxCell>
        <mxCell id="F0BfJw0g09WCWPjjvVez-86" value="&lt;font style=&quot;font-size: 18px;&quot;&gt;Classification&lt;/font&gt;" style="text;strokeColor=none;fillColor=none;spacingLeft=4;spacingRight=4;overflow=hidden;rotatable=0;points=[[0,0.5],[1,0.5]];portConstraint=eastwest;fontSize=12;whiteSpace=wrap;html=1;" vertex="1" parent="F0BfJw0g09WCWPjjvVez-80">
          <mxGeometry y="202" width="250" height="44" as="geometry" />
        </mxCell>
        <mxCell id="F0BfJw0g09WCWPjjvVez-90" value="Buy/SellTranscations" style="swimlane;fontStyle=0;childLayout=stackLayout;horizontal=1;startSize=26;horizontalStack=0;resizeParent=1;resizeParentMax=0;resizeLast=0;collapsible=1;marginBottom=0;align=center;fontSize=14;" vertex="1" parent="1">
          <mxGeometry x="1270" y="1840" width="270" height="246" as="geometry" />
        </mxCell>
        <mxCell id="F0BfJw0g09WCWPjjvVez-91" value="&lt;font style=&quot;font-size: 18px;&quot;&gt;&amp;nbsp;Id_number&lt;/font&gt;" style="text;strokeColor=none;fillColor=none;spacingLeft=4;spacingRight=4;overflow=hidden;rotatable=0;points=[[0,0.5],[1,0.5]];portConstraint=eastwest;fontSize=12;whiteSpace=wrap;html=1;" vertex="1" parent="F0BfJw0g09WCWPjjvVez-90">
          <mxGeometry y="26" width="270" height="44" as="geometry" />
        </mxCell>
        <mxCell id="F0BfJw0g09WCWPjjvVez-92" value="" style="endArrow=none;html=1;rounded=0;entryX=0.4;entryY=0.75;entryDx=0;entryDy=0;entryPerimeter=0;" edge="1" parent="F0BfJw0g09WCWPjjvVez-90" target="F0BfJw0g09WCWPjjvVez-91">
          <mxGeometry relative="1" as="geometry">
            <mxPoint x="10" y="59.47000000000003" as="sourcePoint" />
            <mxPoint x="80" y="59" as="targetPoint" />
          </mxGeometry>
        </mxCell>
        <mxCell id="F0BfJw0g09WCWPjjvVez-93" value="&lt;font style=&quot;font-size: 18px;&quot;&gt;Date&lt;/font&gt;" style="text;strokeColor=none;fillColor=none;spacingLeft=4;spacingRight=4;overflow=hidden;rotatable=0;points=[[0,0.5],[1,0.5]];portConstraint=eastwest;fontSize=12;whiteSpace=wrap;html=1;" vertex="1" parent="F0BfJw0g09WCWPjjvVez-90">
          <mxGeometry y="70" width="270" height="44" as="geometry" />
        </mxCell>
        <mxCell id="F0BfJw0g09WCWPjjvVez-94" value="&lt;font style=&quot;font-size: 18px;&quot;&gt;AmountOfMonyPaid/Received&lt;/font&gt;" style="text;strokeColor=none;fillColor=none;spacingLeft=4;spacingRight=4;overflow=hidden;rotatable=0;points=[[0,0.5],[1,0.5]];portConstraint=eastwest;fontSize=12;whiteSpace=wrap;html=1;" vertex="1" parent="F0BfJw0g09WCWPjjvVez-90">
          <mxGeometry y="114" width="270" height="44" as="geometry" />
        </mxCell>
        <mxCell id="F0BfJw0g09WCWPjjvVez-95" value="&lt;font style=&quot;font-size: 18px;&quot;&gt;Description&lt;/font&gt;" style="text;strokeColor=none;fillColor=none;spacingLeft=4;spacingRight=4;overflow=hidden;rotatable=0;points=[[0,0.5],[1,0.5]];portConstraint=eastwest;fontSize=12;whiteSpace=wrap;html=1;" vertex="1" parent="F0BfJw0g09WCWPjjvVez-90">
          <mxGeometry y="158" width="270" height="44" as="geometry" />
        </mxCell>
        <mxCell id="F0BfJw0g09WCWPjjvVez-99" value="&lt;font style=&quot;font-size: 18px;&quot;&gt;Airline_id&lt;br&gt;&lt;/font&gt;" style="text;strokeColor=none;fillColor=none;spacingLeft=4;spacingRight=4;overflow=hidden;rotatable=0;points=[[0,0.5],[1,0.5]];portConstraint=eastwest;fontSize=12;whiteSpace=wrap;html=1;" vertex="1" parent="F0BfJw0g09WCWPjjvVez-90">
          <mxGeometry y="202" width="270" height="44" as="geometry" />
        </mxCell>
        <mxCell id="F0BfJw0g09WCWPjjvVez-100" value="Assign" style="swimlane;fontStyle=0;childLayout=stackLayout;horizontal=1;startSize=26;horizontalStack=0;resizeParent=1;resizeParentMax=0;resizeLast=0;collapsible=1;marginBottom=0;align=center;fontSize=14;" vertex="1" parent="1">
          <mxGeometry x="147.5" y="1680" width="250" height="290" as="geometry" />
        </mxCell>
        <mxCell id="F0BfJw0g09WCWPjjvVez-101" value="&lt;font style=&quot;font-size: 18px;&quot;&gt;&amp;nbsp;Aircraft_id&lt;/font&gt;" style="text;strokeColor=none;fillColor=none;spacingLeft=4;spacingRight=4;overflow=hidden;rotatable=0;points=[[0,0.5],[1,0.5]];portConstraint=eastwest;fontSize=12;whiteSpace=wrap;html=1;" vertex="1" parent="F0BfJw0g09WCWPjjvVez-100">
          <mxGeometry y="26" width="250" height="44" as="geometry" />
        </mxCell>
        <mxCell id="F0BfJw0g09WCWPjjvVez-102" value="" style="endArrow=none;html=1;rounded=0;" edge="1" parent="F0BfJw0g09WCWPjjvVez-100">
          <mxGeometry relative="1" as="geometry">
            <mxPoint x="10" y="59.47000000000003" as="sourcePoint" />
            <mxPoint x="80" y="59" as="targetPoint" />
          </mxGeometry>
        </mxCell>
        <mxCell id="F0BfJw0g09WCWPjjvVez-103" value="&lt;font style=&quot;font-size: 18px;&quot;&gt;&amp;nbsp;Route_number&lt;/font&gt;" style="text;strokeColor=none;fillColor=none;spacingLeft=4;spacingRight=4;overflow=hidden;rotatable=0;points=[[0,0.5],[1,0.5]];portConstraint=eastwest;fontSize=12;whiteSpace=wrap;html=1;" vertex="1" parent="F0BfJw0g09WCWPjjvVez-100">
          <mxGeometry y="70" width="250" height="44" as="geometry" />
        </mxCell>
        <mxCell id="F0BfJw0g09WCWPjjvVez-104" value="" style="endArrow=none;html=1;rounded=0;" edge="1" parent="F0BfJw0g09WCWPjjvVez-100">
          <mxGeometry relative="1" as="geometry">
            <mxPoint x="10" y="100" as="sourcePoint" />
            <mxPoint x="130" y="100" as="targetPoint" />
          </mxGeometry>
        </mxCell>
        <mxCell id="F0BfJw0g09WCWPjjvVez-106" value="&lt;font style=&quot;font-size: 18px;&quot;&gt;PassengerNumber&lt;/font&gt;" style="text;strokeColor=none;fillColor=none;spacingLeft=4;spacingRight=4;overflow=hidden;rotatable=0;points=[[0,0.5],[1,0.5]];portConstraint=eastwest;fontSize=12;whiteSpace=wrap;html=1;" vertex="1" parent="F0BfJw0g09WCWPjjvVez-100">
          <mxGeometry y="114" width="250" height="44" as="geometry" />
        </mxCell>
        <mxCell id="F0BfJw0g09WCWPjjvVez-109" value="&lt;font style=&quot;font-size: 18px;&quot;&gt;PricePerPassengers&lt;/font&gt;" style="text;strokeColor=none;fillColor=none;spacingLeft=4;spacingRight=4;overflow=hidden;rotatable=0;points=[[0,0.5],[1,0.5]];portConstraint=eastwest;fontSize=12;whiteSpace=wrap;html=1;" vertex="1" parent="F0BfJw0g09WCWPjjvVez-100">
          <mxGeometry y="158" width="250" height="44" as="geometry" />
        </mxCell>
        <mxCell id="F0BfJw0g09WCWPjjvVez-107" value="&lt;font style=&quot;font-size: 18px;&quot;&gt;DepartureDateTime&lt;/font&gt;" style="text;strokeColor=none;fillColor=none;spacingLeft=4;spacingRight=4;overflow=hidden;rotatable=0;points=[[0,0.5],[1,0.5]];portConstraint=eastwest;fontSize=12;whiteSpace=wrap;html=1;" vertex="1" parent="F0BfJw0g09WCWPjjvVez-100">
          <mxGeometry y="202" width="250" height="44" as="geometry" />
        </mxCell>
        <mxCell id="F0BfJw0g09WCWPjjvVez-108" value="&lt;font style=&quot;font-size: 18px;&quot;&gt;ArrivalDateTime&lt;/font&gt;" style="text;strokeColor=none;fillColor=none;spacingLeft=4;spacingRight=4;overflow=hidden;rotatable=0;points=[[0,0.5],[1,0.5]];portConstraint=eastwest;fontSize=12;whiteSpace=wrap;html=1;" vertex="1" parent="F0BfJw0g09WCWPjjvVez-100">
          <mxGeometry y="246" width="250" height="44" as="geometry" />
        </mxCell>
        <mxCell id="F0BfJw0g09WCWPjjvVez-114" style="edgeStyle=orthogonalEdgeStyle;rounded=0;orthogonalLoop=1;jettySize=auto;html=1;exitX=0;exitY=0.5;exitDx=0;exitDy=0;" edge="1" parent="1" source="F0BfJw0g09WCWPjjvVez-113">
          <mxGeometry relative="1" as="geometry">
            <mxPoint x="800" y="1407" as="targetPoint" />
            <Array as="points">
              <mxPoint x="1120" y="1760" />
              <mxPoint x="1120" y="1407" />
            </Array>
          </mxGeometry>
        </mxCell>
        <mxCell id="F0BfJw0g09WCWPjjvVez-115" style="edgeStyle=orthogonalEdgeStyle;rounded=0;orthogonalLoop=1;jettySize=auto;html=1;exitX=0;exitY=0.5;exitDx=0;exitDy=0;entryX=0;entryY=0.5;entryDx=0;entryDy=0;" edge="1" parent="1" source="F0BfJw0g09WCWPjjvVez-64" target="F0BfJw0g09WCWPjjvVez-52">
          <mxGeometry relative="1" as="geometry">
            <mxPoint x="1160" y="1460" as="targetPoint" />
            <Array as="points">
              <mxPoint x="1200" y="1168" />
              <mxPoint x="1200" y="1408" />
            </Array>
          </mxGeometry>
        </mxCell>
        <mxCell id="F0BfJw0g09WCWPjjvVez-116" style="edgeStyle=orthogonalEdgeStyle;rounded=0;orthogonalLoop=1;jettySize=auto;html=1;exitX=0;exitY=0.5;exitDx=0;exitDy=0;entryX=0;entryY=0.318;entryDx=0;entryDy=0;entryPerimeter=0;" edge="1" parent="1" source="F0BfJw0g09WCWPjjvVez-40" target="F0BfJw0g09WCWPjjvVez-31">
          <mxGeometry relative="1" as="geometry">
            <Array as="points">
              <mxPoint x="520" y="1168" />
              <mxPoint x="520" y="1410" />
            </Array>
          </mxGeometry>
        </mxCell>
        <mxCell id="F0BfJw0g09WCWPjjvVez-118" style="edgeStyle=orthogonalEdgeStyle;rounded=0;orthogonalLoop=1;jettySize=auto;html=1;exitX=0;exitY=0.5;exitDx=0;exitDy=0;entryX=1;entryY=0.5;entryDx=0;entryDy=0;" edge="1" parent="1" source="F0BfJw0g09WCWPjjvVez-99" target="F0BfJw0g09WCWPjjvVez-31">
          <mxGeometry relative="1" as="geometry">
            <Array as="points">
              <mxPoint x="1040" y="2064" />
              <mxPoint x="1040" y="1418" />
            </Array>
          </mxGeometry>
        </mxCell>
        <mxCell id="F0BfJw0g09WCWPjjvVez-121" style="edgeStyle=orthogonalEdgeStyle;rounded=0;orthogonalLoop=1;jettySize=auto;html=1;exitX=1;exitY=0.5;exitDx=0;exitDy=0;entryX=0;entryY=0.5;entryDx=0;entryDy=0;" edge="1" parent="1" source="F0BfJw0g09WCWPjjvVez-78" target="F0BfJw0g09WCWPjjvVez-31">
          <mxGeometry relative="1" as="geometry">
            <Array as="points">
              <mxPoint x="480" y="1516" />
              <mxPoint x="480" y="1418" />
            </Array>
          </mxGeometry>
        </mxCell>
        <mxCell id="F0BfJw0g09WCWPjjvVez-122" style="edgeStyle=orthogonalEdgeStyle;rounded=0;orthogonalLoop=1;jettySize=auto;html=1;exitX=0;exitY=0.5;exitDx=0;exitDy=0;entryX=0;entryY=0.5;entryDx=0;entryDy=0;" edge="1" parent="1" source="F0BfJw0g09WCWPjjvVez-101" target="F0BfJw0g09WCWPjjvVez-69">
          <mxGeometry relative="1" as="geometry">
            <Array as="points">
              <mxPoint x="110" y="1728" />
              <mxPoint x="110" y="1208" />
            </Array>
          </mxGeometry>
        </mxCell>
        <mxCell id="F0BfJw0g09WCWPjjvVez-123" style="edgeStyle=orthogonalEdgeStyle;rounded=0;orthogonalLoop=1;jettySize=auto;html=1;exitX=1;exitY=0.5;exitDx=0;exitDy=0;entryX=0;entryY=0.5;entryDx=0;entryDy=0;" edge="1" parent="1" source="F0BfJw0g09WCWPjjvVez-103" target="F0BfJw0g09WCWPjjvVez-81">
          <mxGeometry relative="1" as="geometry" />
        </mxCell>
      </root>
    </mxGraphModel>
  </diagram>
</mxfile>
